<svg width="33" height="32" viewBox="0 0 33 32" fill="none" xmlns="http://www.w3.org/2000/svg">
<g id="facebook 1" clip-path="url(#clip0_1_5055)">
<path id="Vector" fill-rule="evenodd" clip-rule="evenodd" d="M16.4489 0.484863C19.3335 0.51778 21.9394 1.22672 24.2667 2.61169C26.5663 3.96902 28.4791 5.89358 29.8224 8.20136C31.1989 10.5427 31.9036 13.1644 31.9364 16.0665C31.8547 20.0374 30.6022 23.4288 28.1791 26.241C25.756 29.0531 22.6526 30.7928 19.4399 31.4598V20.3268H22.4772L23.1641 15.9518H18.5649V13.0863C18.5394 12.4923 18.7272 11.9087 19.0945 11.4411C19.4623 10.9722 20.11 10.7258 21.0376 10.7018H23.8149V6.86941C23.7751 6.85659 23.3969 6.80589 22.6805 6.71731C21.8681 6.62224 21.051 6.57147 20.233 6.56521C18.3817 6.57375 16.9175 7.09598 15.8405 8.13192C14.7634 9.16756 14.2133 10.6659 14.1899 12.627V15.9518H10.6899V20.3268H14.1899V31.4598C10.2453 30.7928 7.14182 29.0531 4.7187 26.241C2.29557 23.4288 1.0432 20.0374 0.961433 16.0665C0.994146 13.1643 1.6988 10.5425 3.07541 8.20136C4.41871 5.89359 6.33159 3.96902 8.63114 2.61169C10.9584 1.22699 13.5643 0.518047 16.4489 0.484863Z" fill="#0396C7"/>
</g>
<defs>
<clipPath id="clip0_1_5055">
<rect width="32" height="32" fill="white" transform="translate(0.5)"/>
</clipPath>
</defs>
</svg>
