<svg width="30" height="30" viewBox="0 0 30 30" fill="none" xmlns="http://www.w3.org/2000/svg">
<g id="Frame">
<path id="Vector" d="M27.2449 25.2553L21.6797 19.6877C23.3483 17.5133 24.1274 14.7855 23.8588 12.0578C23.5902 9.33008 22.2941 6.80665 20.2334 4.99941C18.1727 3.19217 15.5018 2.23644 12.7623 2.32609C10.0229 2.41575 7.42012 3.54408 5.48201 5.48219C3.54389 7.42031 2.41557 10.0231 2.32591 12.7625C2.23626 15.502 3.19199 18.1729 4.99923 20.2336C6.80647 22.2943 9.32989 23.5904 12.0576 23.859C14.7853 24.1276 17.5131 23.3485 19.6875 21.6799L25.2574 27.251C25.3883 27.3818 25.5435 27.4856 25.7145 27.5564C25.8854 27.6271 26.0685 27.6636 26.2535 27.6636C26.4385 27.6636 26.6217 27.6271 26.7926 27.5564C26.9635 27.4856 27.1188 27.3818 27.2496 27.251C27.3804 27.1202 27.4842 26.9649 27.555 26.794C27.6258 26.6231 27.6622 26.4399 27.6622 26.2549C27.6622 26.0699 27.6258 25.8867 27.555 25.7158C27.4842 25.5449 27.3804 25.3896 27.2496 25.2588L27.2449 25.2553ZM5.15627 13.1252C5.15627 11.5491 5.62363 10.0085 6.49925 8.69801C7.37487 7.38755 8.61941 6.36618 10.0755 5.76304C11.5316 5.15991 13.1339 5.0021 14.6796 5.30957C16.2254 5.61705 17.6453 6.376 18.7598 7.49045C19.8742 8.6049 20.6332 10.0248 20.9407 11.5706C21.2481 13.1164 21.0903 14.7186 20.4872 16.1747C19.884 17.6308 18.8627 18.8754 17.5522 19.751C16.2418 20.6266 14.7011 21.094 13.125 21.094C11.0122 21.0918 8.98662 20.2515 7.49266 18.7576C5.9987 17.2636 5.15844 15.238 5.15627 13.1252Z" fill="#CCCCCC"/>
</g>
</svg>
