<svg width="33" height="32" viewBox="0 0 33 32" fill="none" xmlns="http://www.w3.org/2000/svg">
<g id="instagram 1">
<path id="Vector" fill-rule="evenodd" clip-rule="evenodd" d="M16.5 12.5011C18.6637 12.5011 20.4178 14.228 20.4178 16.3583C20.4178 18.4881 18.6637 20.215 16.5 20.215C14.3363 20.215 12.5822 18.4881 12.5822 16.3583C12.5822 14.228 14.3363 12.5011 16.5 12.5011ZM16.5 10.9587C13.4708 10.9587 11.0151 13.3761 11.0151 16.3583C11.0151 19.34 13.4708 21.7578 16.5 21.7578C19.5292 21.7578 21.9849 19.34 21.9849 16.3583C21.9849 13.3761 19.5292 10.9587 16.5 10.9587ZM22.1542 9.66077C21.8501 9.66553 21.5542 9.76006 21.3037 9.93248C21.0531 10.1049 20.8591 10.3475 20.746 10.6299C20.633 10.9122 20.6058 11.2217 20.6681 11.5194C20.7304 11.8171 20.8792 12.0897 21.0959 12.3031C21.3127 12.5165 21.5876 12.661 21.8863 12.7186C22.1849 12.7762 22.4939 12.7442 22.7745 12.6268C23.055 12.5093 23.2945 12.3115 23.463 12.0583C23.6315 11.8051 23.7214 11.5077 23.7214 11.2036C23.7181 10.7912 23.5512 10.397 23.2573 10.1076C22.9634 9.81832 22.5666 9.65758 22.1542 9.66077ZM12.6714 7.98169H20.3286C22.8196 7.98169 24.839 9.96967 24.839 12.4216V20.2945C24.839 22.7469 22.8196 24.7344 20.3286 24.7344H12.6714C10.1804 24.7344 8.16097 22.7469 8.16097 20.2945V12.4216C8.16097 9.96967 10.1803 7.98169 12.6714 7.98169ZM11.9492 6.44616C8.9883 6.44616 6.58798 8.80929 6.58798 11.7239V20.9922C6.58798 23.9073 8.98827 26.27 11.9492 26.27H21.0508C24.0117 26.27 26.412 23.9073 26.412 20.9922V11.7239C26.412 8.80926 24.0117 6.44616 21.0508 6.44616H11.9492ZM16.5 0.870605C25.0535 0.870605 31.9875 7.80436 31.9875 16.3583C31.9875 24.9118 25.0535 31.8455 16.5 31.8455C7.94647 31.8455 1.0125 24.9118 1.0125 16.3583C1.0125 7.80438 7.94647 0.870605 16.5 0.870605Z" fill="#0396C7"/>
</g>
</svg>
