<svg width="30" height="30" viewBox="0 0 30 30" fill="none" xmlns="http://www.w3.org/2000/svg">
<g id="Frame">
<path id="Vector" d="M11.7188 25.3125C11.7188 25.7761 11.5813 26.2292 11.3238 26.6146C11.0662 27 10.7002 27.3004 10.2719 27.4778C9.84365 27.6552 9.3724 27.7017 8.91776 27.6112C8.46311 27.5208 8.0455 27.2976 7.71772 26.9698C7.38994 26.642 7.16672 26.2244 7.07628 25.7697C6.98585 25.3151 7.03226 24.8438 7.20966 24.4156C7.38705 23.9873 7.68746 23.6213 8.07288 23.3637C8.45831 23.1062 8.91145 22.9688 9.375 22.9688C9.9966 22.9688 10.5927 23.2157 11.0323 23.6552C11.4718 24.0948 11.7188 24.6909 11.7188 25.3125ZM21.5625 22.9688C21.0989 22.9688 20.6458 23.1062 20.2604 23.3637C19.875 23.6213 19.5746 23.9873 19.3972 24.4156C19.2198 24.8438 19.1733 25.3151 19.2638 25.7697C19.3542 26.2244 19.5774 26.642 19.9052 26.9698C20.233 27.2976 20.6506 27.5208 21.1053 27.6112C21.5599 27.7017 22.0312 27.6552 22.4594 27.4778C22.8877 27.3004 23.2537 27 23.5113 26.6146C23.7688 26.2292 23.9062 25.7761 23.9062 25.3125C23.9062 24.6909 23.6593 24.0948 23.2198 23.6552C22.7802 23.2157 22.1841 22.9688 21.5625 22.9688ZM27.5941 8.85117L24.3961 19.2457C24.1919 19.9179 23.7764 20.5064 23.2113 20.9237C22.6462 21.3411 21.9615 21.5651 21.259 21.5625H9.71836C9.00575 21.5602 8.31308 21.327 7.74413 20.8979C7.17518 20.4688 6.7606 19.8669 6.5625 19.1824L2.55586 5.15625H1.40625C1.03329 5.15625 0.675604 5.00809 0.411881 4.74437C0.148158 4.48065 0 4.12296 0 3.75C0 3.37704 0.148158 3.01935 0.411881 2.75563C0.675604 2.49191 1.03329 2.34375 1.40625 2.34375H2.90859C3.41759 2.34532 3.91235 2.51189 4.31866 2.81847C4.72497 3.12506 5.02092 3.55512 5.16211 4.04414L6.01641 7.03125H26.25C26.4701 7.03123 26.6871 7.08287 26.8836 7.18201C27.0801 7.28115 27.2505 7.42502 27.3813 7.60205C27.512 7.77908 27.5994 7.98432 27.6364 8.20128C27.6733 8.41823 27.6589 8.64083 27.5941 8.85117ZM24.3457 9.84375H6.81914L9.26719 18.4102C9.29522 18.5082 9.35442 18.5943 9.43584 18.6557C9.51725 18.717 9.61643 18.7501 9.71836 18.75H21.259C21.3593 18.7502 21.4571 18.7182 21.5379 18.6587C21.6186 18.5992 21.6782 18.5154 21.7078 18.4195L24.3457 9.84375Z" fill="#0396C7"/>
</g>
</svg>
